<?xml version="1.0" encoding="utf-8"?>
<!-- Generator: Adobe Illustrator 23.0.3, SVG Export Plug-In . SVG Version: 6.00 Build 0)  -->
<svg version="1.1" id="Layer_1" xmlns="http://www.w3.org/2000/svg" xmlns:xlink="http://www.w3.org/1999/xlink" x="0px" y="0px"
	 viewBox="0 0 288.6 130.7" enable-background="new 0 0 288.6 130.7" xml:space="preserve">
<path fill="#363651" d="M290-386.4l-3.3-1.8c-0.9-0.5-1.3-1.7-0.8-2.7l21.8-44.7c3.3-6.8,10-10.9,17.6-10.9s14.2,4.2,17.6,10.9
	l21.9,44.7c0.5,1,0.1,2.1-0.8,2.7l-3.5,1.9c-1,0.6-2.3,0.2-2.7-0.8c0-0.1-0.1-0.2-0.1-0.2l-21.8-44.7c-1.9-4-6-6.5-10.4-6.5
	c-4.5,0-8.5,2.5-10.4,6.5l-21.8,44.7C292.5-386.3,291.1-385.8,290-386.4L290-386.4z"/>
<linearGradient id="SVGID_1_" gradientUnits="userSpaceOnUse" x1="188.8772" y1="1732.7404" x2="461.5863" y2="1732.7404" gradientTransform="matrix(1 0 0 -1 0 1301.4)">
	<stop  offset="0" style="stop-color:#57C3BD"/>
	<stop  offset="7.400000e-02" style="stop-color:#95D572"/>
	<stop  offset="8.700000e-02" style="stop-color:#A3DA67"/>
	<stop  offset="0.121" style="stop-color:#C5E74C"/>
	<stop  offset="0.154" style="stop-color:#DDF039"/>
	<stop  offset="0.185" style="stop-color:#ECF52D"/>
	<stop  offset="0.21" style="stop-color:#F1F729"/>
	<stop  offset="0.282" style="stop-color:#F4C826"/>
	<stop  offset="0.37" style="stop-color:#F79423"/>
	<stop  offset="0.447" style="stop-color:#F96F20"/>
	<stop  offset="0.509" style="stop-color:#FA581F"/>
	<stop  offset="0.548" style="stop-color:#FB501E"/>
	<stop  offset="0.583" style="stop-color:#FABEA7"/>
	<stop  offset="0.643" style="stop-color:#FF7717"/>
	<stop  offset="0.84" style="stop-color:#FAF520"/>
	<stop  offset="0.905" style="stop-color:#C6EC46"/>
	<stop  offset="0.973" style="stop-color:#66C5B5"/>
</linearGradient>
<path opacity="0.9" fill="url(#SVGID_1_)" enable-background="new    " d="M461.5-477c-34.2-12.6-89.6-18.6-136.2-18.6
	s-102,6.1-136.2,18.6l-0.2,78.3c0,6.5,4.1,12.4,10.3,14.6l41.9,14.8c18.8,6.6,39.6-1.9,48.4-19.8l21.8-44.7c2.6-5.3,8.1-8.7,14-8.7
	s11.4,3.4,14,8.7l21.8,44.7c8.8,18,29.6,26.5,48.4,19.8l41.9-14.8c6.2-2.2,10.3-8,10.3-14.6L461.5-477L461.5-477z"/>
<path fill="#D86313" d="M451.4-384.1l-41.9,14.8c-18.8,6.6-39.6-1.9-48.4-19.8l-21.8-44.7c-2.6-5.3-8.1-8.7-14-8.7s-11.4,3.4-14,8.7
	l-21.8,44.7c-8.8,18-29.6,26.5-48.4,19.8l-42-14.8c-6.1-2.2-10.3-8-10.3-14.6v0.7c0,6.5,4.1,12.4,10.3,14.6l41.9,14.8
	c18.8,6.6,39.6-1.9,48.4-19.8l21.8-44.7c2.6-5.3,8.1-8.7,14-8.7s11.4,3.4,14,8.7l21.8,44.7c8.8,18,29.6,26.5,48.4,19.8l41.9-14.8
	c6.2-2.2,10.3-8,10.3-14.6v-0.7C461.7-392.1,457.5-386.3,451.4-384.1L451.4-384.1z"/>
<path d="M325.3-449.7c-8.7,0-16.5,4.9-20.4,12.7l-5.2,10.8c-0.4,0.7,0,1.5,0.7,1.9l5.1,2.5l5.8-12c2.6-5.3,8.1-8.7,14-8.7
	c5.9,0,11.4,3.4,14,8.7l5.8,12l5.1-2.5c0.7-0.4,1-1.2,0.7-1.9l-5.2-10.8C341.8-444.8,334-449.7,325.3-449.7z M461.5-452.4l0,10.5
	l6.7-7.4L461.5-452.4z"/>
<path fill="#363651" d="M466.2-448.6l-14.1-1.9c-1.5-0.2-2.5-1.5-2.4-3l1.7-20.9c0.1-1.8,1.9-2.9,3.5-2.4l12.9,3.7
	c1,0.3,1.6,1.2,1.6,2.2l-0.8,20.4C468.7-449.4,467.5-448.4,466.2-448.6L466.2-448.6z"/>
<path d="M189-452.4l0,10.5l-6.7-7.4L189-452.4z"/>
<path fill="#363651" d="M184.3-448.6l14.1-1.9c1.5-0.2,2.5-1.5,2.4-3l-1.7-20.9c-0.1-1.8-1.9-2.9-3.5-2.4l-12.9,3.7
	c-1,0.3-1.6,1.2-1.6,2.2l0.8,20.4C181.9-449.4,183-448.4,184.3-448.6L184.3-448.6z"/>
<path d="M466.2-450.1l-14.1-1.9c-1.5-0.2-2.5-1.5-2.4-3l1.7-20.9c0.1-1.8,1.9-2.9,3.5-2.4l12.9,3.7c1,0.3,1.6,1.2,1.6,2.2l-0.8,20.4
	C468.7-450.9,467.5-449.9,466.2-450.1L466.2-450.1z M184.3-450.1l14.1-1.9c1.5-0.2,2.5-1.5,2.4-3l-1.7-20.9
	c-0.1-1.8-1.9-2.9-3.5-2.4l-12.9,3.7c-1,0.3-1.6,1.2-1.6,2.2l0.8,20.4C181.9-450.9,183-449.9,184.3-450.1L184.3-450.1z"/>
<path fill="#363651" d="M370.8-492.5c0.1-0.7-0.4-1.2-1-1.3c-15.1-1.2-30.2-1.7-44.5-1.7c-14.3,0-29.4,0.6-44.5,1.7
	c-0.7,0-1.1,0.7-1,1.3l1.5,7.9c0.3,1.8,1.9,3,3.6,3h80.9c1.8,0,3.3-1.3,3.6-3L370.8-492.5L370.8-492.5z"/>
<path fill="#303540" d="M228.7-483.5l-15.8,23.9c0,0-0.5-3.4-0.6-5l5.4-8.9c0,0-5.8,1.3-6.5,1.9c0,0,0.3,40.5,1,47.3l-1.1,4
	c0,0-6.7-38.5-5.9-56C205.2-476.3,215.6-482.6,228.7-483.5L228.7-483.5z M226.9-475.9l3.1-7.3c0,0,7.6-2.2,21.7-2.7l-2.7,4.6
	c0,0-4.6,1.2-4.9,1.5l0.4,11.5l-4.6-1.9l-0.6-8.2L226.9-475.9L226.9-475.9z"/>
<path fill="#303540" d="M227.1-474.7c0,0,3.1-1,4.2-0.8c0,0,0.4,7.4,0.3,7.9c0,0.4-4.3,4.1-4.3,4.1L227.1-474.7z M391.3-486.3
	l15.8,16.6l0.1-11.1c0,0,11,1.5,15.6,2.7l-0.1,1c0,0-3.9-0.9-6.1-1.3c-0.2,0-0.4,0.1-0.4,0.4l0.2,9.7l2.8-2.7l0.2-3.6l6.3,1.7
	l0.2-8.2c0,0-10.9-2.7-21.5-4c-0.5-0.1-1,0.4-1,0.9l0.3,5.9l-6.5-7.4c-0.2-0.3-0.6-0.4-0.9-0.5l-4.5-0.4
	C391.3-486.9,391.2-486.5,391.3-486.3L391.3-486.3z"/>
<path fill="#303540" d="M409.4-478.3l0.1,6.8l3.4,2.9l0.1-9.6c0-0.6-0.5-1.2-1.2-1.2l-1.2,0C410-479.6,409.4-479,409.4-478.3z
	 M427.3-480.9c1.9,0.5,12.4,3.1,19.2,5.6l0.2,8.8l-2.1-0.7c0,0,1.4,17-1,39.2c0,0.2-0.3,0.3-0.4,0.1l-1.2-2c0,0,0.9-30.4-1.1-38.2
	l-1.9-0.6v5.8c0,0.3-0.3,0.4-0.5,0.3l-1.9-1.5l0.1-7.8c0-0.4,0.4-0.6,0.7-0.5l6.9,2l0.2-2.6l-17.2-4.4c-0.2,0-0.4-0.3-0.4-0.5
	l0.1-2.6C427-480.9,427.1-480.9,427.3-480.9z"/>
<path d="M370.8-493.9c0.1-0.7-0.4-1.2-1-1.3c-15.1-1.2-30.2-1.7-44.5-1.7c-14.3,0-29.4,0.6-44.5,1.7c-0.7,0-1.1,0.7-1,1.3l1.5,7.9
	c0.3,1.8,1.9,3,3.6,3h80.9c1.8,0,3.3-1.3,3.6-3L370.8-493.9L370.8-493.9z"/>
<path fill="#303540" d="M435.9-473.4c0,0-6.1-1.9-8.9-2.2l0,3.3c0,0,7.4,1.5,8.7,2.2L435.9-473.4z M436.1-468.8l-2.3,2.3l-6.8-1.6
	l0-3.2C426.9-471.3,433.1-470.1,436.1-468.8L436.1-468.8z"/>
<path fill="#363651" d="M108.6,110.6l-3.3-1.8c-0.9-0.5-1.3-1.7-0.8-2.6l21.7-44.6c3.3-6.8,10-10.9,17.5-10.9
	c7.5,0,14.2,4.2,17.5,10.9l21.8,44.6c0.5,1,0.1,2.1-0.8,2.6l-3.4,1.9c-1,0.6-2.3,0.2-2.7-0.8c0-0.1-0.1-0.2-0.1-0.2l-21.7-44.6
	c-1.9-4-6-6.4-10.4-6.4c-4.5,0-8.4,2.5-10.4,6.5l-21.7,44.6C111.1,110.8,109.8,111.2,108.6,110.6L108.6,110.6z"/>
<linearGradient id="SVGID_2_" gradientUnits="userSpaceOnUse" x1="7.7544" y1="1235.5911" x2="279.8375" y2="1235.5911" gradientTransform="matrix(1 0 0 -1 0 1301.4)">
	<stop  offset="0" style="stop-color:#57C3BD"/>
	<stop  offset="7.400000e-02" style="stop-color:#95D572"/>
	<stop  offset="8.700000e-02" style="stop-color:#A3DA67"/>
	<stop  offset="0.121" style="stop-color:#C5E74C"/>
	<stop  offset="0.154" style="stop-color:#DDF039"/>
	<stop  offset="0.185" style="stop-color:#ECF52D"/>
	<stop  offset="0.21" style="stop-color:#F1F729"/>
	<stop  offset="0.282" style="stop-color:#F4C826"/>
	<stop  offset="0.37" style="stop-color:#F79423"/>
	<stop  offset="0.447" style="stop-color:#F96F20"/>
	<stop  offset="0.509" style="stop-color:#FA581F"/>
	<stop  offset="0.548" style="stop-color:#FB501E"/>
	<stop  offset="0.583" style="stop-color:#FABEA7"/>
	<stop  offset="0.643" style="stop-color:#FF7717"/>
	<stop  offset="0.84" style="stop-color:#FAF520"/>
	<stop  offset="0.905" style="stop-color:#C6EC46"/>
	<stop  offset="0.973" style="stop-color:#66C5B5"/>
</linearGradient>
<path opacity="0.9" fill="url(#SVGID_2_)" enable-background="new    " d="M279.7,20.3C245.6,7.7,190.4,1.7,143.8,1.7
	S42.1,7.8,7.9,20.3L7.8,98.4c0,6.5,4.1,12.4,10.3,14.6l41.8,14.7c18.8,6.6,39.6-1.9,48.3-19.8l21.7-44.6c2.6-5.3,8-8.7,13.9-8.7
	c5.9,0,11.3,3.4,13.9,8.7l21.7,44.6c8.7,17.9,29.5,26.4,48.3,19.8l41.8-14.7c6.2-2.2,10.3-8,10.3-14.6L279.7,20.3L279.7,20.3z"/>
<path fill="#D86313" d="M269.6,112.9l-41.8,14.7c-18.8,6.6-39.6-1.9-48.3-19.8l-21.7-44.6c-2.6-5.3-8-8.7-13.9-8.7
	c-5.9,0-11.3,3.4-13.9,8.7l-21.7,44.6c-8.7,17.9-29.5,26.4-48.3,19.8L18,112.9c-6.1-2.2-10.3-8-10.3-14.5v0.7
	c0,6.5,4.1,12.4,10.3,14.6l41.8,14.7c18.8,6.6,39.6-1.9,48.3-19.8l21.7-44.6c2.6-5.3,8-8.7,13.9-8.7c5.9,0,11.3,3.4,13.9,8.7
	l21.7,44.6c8.7,17.9,29.5,26.4,48.3,19.8l41.8-14.7c6.2-2.2,10.3-8,10.3-14.6v-0.7C279.9,105,275.8,110.8,269.6,112.9L269.6,112.9z"
	/>
<path d="M143.8,47.5c-8.7,0-16.5,4.9-20.3,12.7l-5.2,10.7c-0.4,0.7,0,1.5,0.7,1.9l5.1,2.5l5.8-12c2.6-5.3,8-8.7,13.9-8.7
	c5.9,0,11.3,3.4,13.9,8.7l5.8,12l5.1-2.5c0.7-0.4,1-1.2,0.7-1.9l-5.2-10.8C160.3,52.4,152.5,47.5,143.8,47.5z M279.8,44.8l0,10.5
	l6.7-7.4L279.8,44.8z"/>
<path fill="#363651" d="M284.5,48.6l-14-1.9c-1.5-0.2-2.5-1.5-2.4-3l1.7-20.9c0.1-1.8,1.9-2.9,3.5-2.4l12.9,3.7
	c1,0.3,1.6,1.2,1.6,2.2l-0.8,20.3C286.9,47.8,285.8,48.8,284.5,48.6L284.5,48.6z"/>
<path d="M7.9,44.8l0,10.5l-6.7-7.4L7.9,44.8z"/>
<path fill="#363651" d="M3.2,48.6l14-1.9c1.5-0.2,2.5-1.5,2.4-3l-1.7-20.9c-0.1-1.8-1.9-2.9-3.5-2.4L1.5,24c-1,0.3-1.6,1.2-1.6,2.2
	l0.8,20.3C0.8,47.8,1.9,48.8,3.2,48.6L3.2,48.6z"/>
<path d="M284.5,47.1l-14-1.9c-1.5-0.2-2.5-1.5-2.4-3l1.7-20.9c0.1-1.8,1.9-2.9,3.5-2.4l12.9,3.7c1,0.3,1.6,1.2,1.6,2.2L286.9,45
	C286.9,46.3,285.8,47.3,284.5,47.1L284.5,47.1z M3.2,47.1l14-1.9c1.5-0.2,2.5-1.5,2.4-3l-1.7-20.9c-0.1-1.8-1.9-2.9-3.5-2.4
	L1.5,22.5c-1,0.3-1.6,1.2-1.6,2.2L0.7,45C0.8,46.3,1.9,47.3,3.2,47.1L3.2,47.1z"/>
<path fill="#363651" d="M189.3,4.8c0.1-0.7-0.4-1.2-1-1.3c-15.1-1.1-30.1-1.7-44.4-1.7s-29.4,0.6-44.4,1.7c-0.7,0-1.1,0.7-1,1.3
	l1.5,7.9c0.3,1.8,1.9,3,3.6,3h80.7c1.8,0,3.3-1.3,3.6-3L189.3,4.8L189.3,4.8z"/>
<path fill="#303540" d="M47.5,13.8L31.7,37.6c0,0-0.5-3.4-0.6-5l5.3-8.9c0,0-5.8,1.3-6.4,1.9c0,0,0.3,40.4,1,47.2l-1.1,4
	c0,0-6.7-38.4-5.9-55.9C24.1,21,34.4,14.6,47.5,13.8L47.5,13.8z M45.7,21.4l3.1-7.3c0,0,7.5-2.2,21.7-2.7l-2.7,4.6
	c0,0-4.6,1.2-4.9,1.5l0.4,11.5l-4.5-1.9l-0.6-8.2L45.7,21.4L45.7,21.4z"/>
<path fill="#303540" d="M45.9,22.5c0,0,3-1,4.1-0.8c0,0,0.4,7.4,0.3,7.9c0,0.4-4.3,4.1-4.3,4.1L45.9,22.5z M209.7,11l15.7,16.6
	l0.1-11.1c0,0,11,1.5,15.6,2.7l-0.1,1c0,0-3.9-0.9-6.1-1.3c-0.2,0-0.4,0.1-0.4,0.4l0.2,9.7l2.8-2.7l0.2-3.6l6.3,1.7l0.2-8.2
	c0,0-10.9-2.6-21.5-4c-0.5-0.1-1,0.4-1,0.9l0.3,5.9l-6.5-7.4c-0.2-0.3-0.6-0.4-0.9-0.5l-4.5-0.4C209.7,10.4,209.6,10.8,209.7,11
	L209.7,11z"/>
<path fill="#303540" d="M227.8,18.9l0.1,6.8l3.4,2.9l0.1-9.6c0-0.6-0.5-1.1-1.1-1.2l-1.2,0C228.3,17.7,227.8,18.3,227.8,18.9z
	 M245.6,16.3c1.9,0.5,12.4,3,19.2,5.6l0.2,8.8l-2.1-0.7c0,0,1.4,17-1,39.2c0,0.2-0.3,0.3-0.4,0.1l-1.1-2c0,0,0.9-30.3-1.1-38.1
	l-1.9-0.6v5.7c0,0.3-0.3,0.4-0.5,0.3l-1.9-1.5l0.1-7.8c0-0.4,0.4-0.6,0.7-0.5l6.9,2l0.2-2.6l-17.2-4.4c-0.2,0-0.4-0.3-0.4-0.5
	l0.1-2.6C245.3,16.4,245.5,16.3,245.6,16.3z"/>
<path d="M189.3,3.3c0.1-0.7-0.4-1.2-1-1.3c-15.1-1.1-30.1-1.7-44.4-1.7S114.5,0.9,99.4,2c-0.7,0-1.1,0.7-1,1.3l1.5,7.9
	c0.3,1.8,1.9,3,3.6,3h80.7c1.8,0,3.3-1.3,3.6-3L189.3,3.3L189.3,3.3z"/>
<path fill="#303540" d="M254.2,23.8c0,0-6.1-1.9-8.9-2.2l0,3.3c0,0,7.4,1.5,8.7,2.2L254.2,23.8z M254.4,28.4l-2.3,2.3l-6.8-1.6
	l0-3.2C245.2,25.9,251.4,27.1,254.4,28.4L254.4,28.4z"/>
</svg>
